<svg width="16" height="16" viewBox="0 0 16 16" fill="none" xmlns="http://www.w3.org/2000/svg">
<path d="M7.99967 1.33398C4.32634 1.33398 1.33301 4.32732 1.33301 8.00065C1.33301 11.674 4.32634 14.6673 7.99967 14.6673C11.673 14.6673 14.6663 11.674 14.6663 8.00065C14.6663 4.32732 11.673 1.33398 7.99967 1.33398ZM11.1863 6.46732L7.40634 10.2473C7.31301 10.3407 7.18634 10.394 7.05301 10.394C6.91967 10.394 6.79301 10.3407 6.69967 10.2473L4.81301 8.36065C4.61967 8.16732 4.61967 7.84732 4.81301 7.65398C5.00634 7.46065 5.32634 7.46065 5.51967 7.65398L7.05301 9.18732L10.4797 5.76065C10.673 5.56732 10.993 5.56732 11.1863 5.76065C11.3797 5.95398 11.3797 6.26732 11.1863 6.46732Z" fill="#139ED5"/>
</svg>
